<?xml-stylesheet type="text/css" href="style.css" ?>
<svg width="270" height="144" viewBox="0 0 270 144" version="1.1" xmlns="http://www.w3.org/2000/svg" xmlns:xlink="http://www.w3.org/1999/xlink">
<title>Rectangle 2</title>
<desc>Created using Figma</desc>
<g id="Canvas" transform="translate(1410 4564)">
<g id="Rectangle 2">
<use xlink:href="#path0_stroke" transform="translate(-1407 -4561)"/>
</g>
</g>
<defs>
<path id="path0_stroke" class="path" stroke="#000000" stroke-width="5" d="M 0 0L 0 -2.5L -2.5 -2.5L -2.5 0L 0 0ZM 264 0L 266.5 0L 266.5 -2.5L 264 -2.5L 264 0ZM 264 138L 264 140.5L 266.5 140.5L 266.5 138L 264 138ZM 0 138L -2.5 138L -2.5 140.5L 0 140.5L 0 138ZM 0 2.5L 264 2.5L 264 -2.5L 0 -2.5L 0 2.5ZM 261.5 0L 261.5 138L 266.5 138L 266.5 0L 261.5 0ZM 264 135.5L 0 135.5L 0 140.5L 264 140.5L 264 135.5ZM 2.5 138L 2.5 0L -2.5 0L -2.5 138L 2.5 138Z"/>
</defs>
</svg>
