<?xml-stylesheet type="text/css" href="style.css" ?>
<svg xmlns="http://www.w3.org/2000/svg" width="216.11" height="338.46" viewBox="0 0 216.11 338.46">
  <title>Asset 2</title>
  <path class="laser" d="M108.06,3,130.3,18.59l26.92-3.43,12.47,24.1,25.43,9.48L195,75.89,213.09,96.1l-12.75,24L207,146.37l-22.42,15.29L178.22,188l-27,3.12-17.88,20.42-25.32-9.77-25.32,9.77L64.86,191.16,37.9,188l-6.34-26.39L9.13,146.37l6.65-26.31L3,96.1,21.14,75.89,21,48.75l25.43-9.48,12.47-24.1,26.92,3.43Zm.17,28a76.5,76.5,0,1,0,76.5,76.5A76.5,76.5,0,0,0,108.22,31.08ZM82.74,211.58,64.86,191.16l-10.68-1.23L31.29,325.29l27.8-8.48,24.46,17.32,22.22-131.44Zm68.52-20.42-17.88,20.42-22.68-8.75,22.2,131.3,24.46-17.32,27.8,8.48-22.89-135.4Z" style="fill: none;stroke-miterlimit: 10;stroke-width: 5px"/>
  <path class="laser-trail" d="M108.06,3,130.3,18.59l26.92-3.43,12.47,24.1,25.43,9.48L195,75.89,213.09,96.1l-12.75,24L207,146.37l-22.42,15.29L178.22,188l-27,3.12-17.88,20.42-25.32-9.77-25.32,9.77L64.86,191.16,37.9,188l-6.34-26.39L9.13,146.37l6.65-26.31L3,96.1,21.14,75.89,21,48.75l25.43-9.48,12.47-24.1,26.92,3.43Zm.17,28a76.5,76.5,0,1,0,76.5,76.5A76.5,76.5,0,0,0,108.22,31.08ZM82.74,211.58,64.86,191.16l-10.68-1.23L31.29,325.29l27.8-8.48,24.46,17.32,22.22-131.44Zm68.52-20.42-17.88,20.42-22.68-8.75,22.2,131.3,24.46-17.32,27.8,8.48-22.89-135.4Z" style="fill: none;stroke-miterlimit: 10;stroke-width: 5px"/>
  <path class="path" d="M108.06,3,130.3,18.59l26.92-3.43,12.47,24.1,25.43,9.48L195,75.89,213.09,96.1l-12.75,24L207,146.37l-22.42,15.29L178.22,188l-27,3.12-17.88,20.42-25.32-9.77-25.32,9.77L64.86,191.16,37.9,188l-6.34-26.39L9.13,146.37l6.65-26.31L3,96.1,21.14,75.89,21,48.75l25.43-9.48,12.47-24.1,26.92,3.43Zm.17,28a76.5,76.5,0,1,0,76.5,76.5A76.5,76.5,0,0,0,108.22,31.08ZM82.74,211.58,64.86,191.16l-10.68-1.23L31.29,325.29l27.8-8.48,24.46,17.32,22.22-131.44Zm68.52-20.42-17.88,20.42-22.68-8.75,22.2,131.3,24.46-17.32,27.8,8.48-22.89-135.4Z" style="fill: none;stroke-miterlimit: 10;stroke-width: 5px"/>
</svg>
