<?xml-stylesheet type="text/css" href="style.css" ?>
<svg width="234" height="376" viewBox="0 0 234 376" version="1.1" xmlns="http://www.w3.org/2000/svg" xmlns:xlink="http://www.w3.org/1999/xlink">
<title>ribbon</title>
<desc>Created using Figma</desc>
<g id="Canvas" transform="translate(1778 4760)">
<g id="ribbon">
<g id="Rectangle 1">
<mask id="mask0_outline_ins">
<use xlink:href="#path0_fill" fill="white" transform="matrix(-0.988638 0.150319 0.150319 0.988638 -1597.85 -4612)"/>
</mask>
<g mask="url(#mask0_outline_ins)">
<use xlink:href="#path1_stroke_2x" transform="matrix(-0.988638 0.150319 0.150319 0.988638 -1597.85 -4612)"/>
</g>
</g>
<g id="Rectangle 1">
<mask id="mask1_outline_ins">
<use xlink:href="#path0_fill" fill="white" transform="matrix(0.988638 0.150319 -0.150319 0.988638 -1722.08 -4612)"/>
</mask>
<g mask="url(#mask1_outline_ins)">
<use xlink:href="#path1_stroke_2x" transform="matrix(0.988638 0.150319 -0.150319 0.988638 -1722.08 -4612)"/>
</g>
</g>
<g id="Star">
<use xlink:href="#path2_fill" transform="translate(-1778 -4760)" fill="#FFFFFF"/>
<mask id="mask2_outline_ins">
<use xlink:href="#path2_fill" fill="white" transform="translate(-1778 -4760)"/>
</mask>
<g mask="url(#mask2_outline_ins)">
<use xlink:href="#path3_stroke_2x" transform="translate(-1778 -4760)"/>
</g>
</g>
<g id="Ellipse 3">
<mask id="mask3_outline_ins">
<use xlink:href="#path4_fill" fill="white" transform="translate(-1742 -4724)"/>
</mask>
<g mask="url(#mask3_outline_ins)">
<use xlink:href="#path5_stroke_2x" transform="translate(-1742 -4724)"/>
</g>
</g>
</g>
</g>
<defs>
<path id="path0_fill" d="M 0 0L 75 0L 75 219L 38.5267 202.51L 0 219L 0 0Z"/>
<path id="path1_stroke_2x" d="M 0 0L 0 -5L -5 -5L -5 0L 0 0ZM 75 0L 80 0L 80 -5L 75 -5L 75 0ZM 75 219L 72.9401 223.556L 80 226.748L 80 219L 75 219ZM 0 219L -5 219L -5 226.579L 1.96746 223.597L 0 219ZM 38.5267 202.51L 40.5866 197.954L 38.5818 197.047L 36.5592 197.913L 38.5267 202.51ZM 0 5L 75 5L 75 -5L 0 -5L 0 5ZM 70 0L 70 219L 80 219L 80 0L 70 0ZM 5 219L 5 0L -5 0L -5 219L 5 219ZM 77.0599 214.444L 40.5866 197.954L 36.4669 207.066L 72.9401 223.556L 77.0599 214.444ZM 36.5592 197.913L -1.96746 214.403L 1.96746 223.597L 40.4942 207.106L 36.5592 197.913Z"/>
<path id="path2_fill" d="M 117 0L 141.788 16.4315L 171.373 13.4016L 185.685 39.4705L 213.289 50.5364L 213.847 80.2706L 233.147 102.897L 219.823 129.485L 226.397 158.489L 202.243 175.839L 194.585 204.576L 165.135 208.714L 145 230.6L 117 220.578L 89.0001 230.6L 68.8647 208.714L 39.4146 204.576L 31.7567 175.839L 7.6031 158.489L 14.1769 129.485L 0.853062 102.897L 20.1526 80.2706L 20.7109 50.5364L 48.3149 39.4705L 62.6274 13.4016L 92.2121 16.4315L 117 0Z"/>
<path id="path3_stroke_2x" d="M 117 0L 119.763 -4.16752L 117 -5.99878L 114.237 -4.16752L 117 0ZM 141.788 16.4315L 139.025 20.599L 140.517 21.5878L 142.297 21.4054L 141.788 16.4315ZM 171.373 13.4016L 175.755 10.9953L 174.16 8.08999L 170.863 8.42766L 171.373 13.4016ZM 185.685 39.4705L 181.302 41.8768L 182.164 43.4456L 183.825 44.1115L 185.685 39.4705ZM 213.289 50.5364L 218.288 50.4426L 218.226 47.1287L 215.15 45.8955L 213.289 50.5364ZM 213.847 80.2706L 208.848 80.3645L 208.882 82.1538L 210.043 83.5154L 213.847 80.2706ZM 233.147 102.897L 237.617 105.137L 239.102 102.174L 236.951 99.6524L 233.147 102.897ZM 219.823 129.485L 215.353 127.245L 214.551 128.845L 214.947 130.59L 219.823 129.485ZM 226.397 158.489L 229.314 162.55L 232.006 160.616L 231.273 157.384L 226.397 158.489ZM 202.243 175.839L 199.326 171.778L 197.873 172.822L 197.412 174.552L 202.243 175.839ZM 194.585 204.576L 195.281 209.527L 198.563 209.066L 199.417 205.863L 194.585 204.576ZM 165.135 208.714L 164.439 203.763L 162.667 204.012L 161.456 205.329L 165.135 208.714ZM 145 230.6L 143.315 235.308L 146.436 236.425L 148.68 233.985L 145 230.6ZM 117 220.578L 118.685 215.871L 117 215.268L 115.315 215.871L 117 220.578ZM 89.0001 230.6L 85.3204 233.985L 87.5645 236.425L 90.685 235.308L 89.0001 230.6ZM 68.8647 208.714L 72.5444 205.329L 71.3327 204.012L 69.5605 203.763L 68.8647 208.714ZM 39.4146 204.576L 34.5833 205.863L 35.4367 209.066L 38.7189 209.527L 39.4146 204.576ZM 31.7567 175.839L 36.5881 174.552L 36.1273 172.822L 34.6738 171.778L 31.7567 175.839ZM 7.6031 158.489L 2.72678 157.384L 1.99415 160.616L 4.68602 162.55L 7.6031 158.489ZM 14.1769 129.485L 19.0532 130.59L 19.4488 128.845L 18.647 127.245L 14.1769 129.485ZM 0.853062 102.897L -2.95108 99.6524L -5.10198 102.174L -3.61706 105.137L 0.853062 102.897ZM 20.1526 80.2706L 23.9567 83.5154L 25.1181 82.1538L 25.1517 80.3645L 20.1526 80.2706ZM 20.7109 50.5364L 18.8504 45.8955L 15.774 47.1287L 15.7118 50.4426L 20.7109 50.5364ZM 48.3149 39.4705L 50.1753 44.1115L 51.8365 43.4456L 52.6977 41.8768L 48.3149 39.4705ZM 62.6274 13.4016L 63.1368 8.42766L 59.8396 8.08999L 58.2445 10.9953L 62.6274 13.4016ZM 92.2121 16.4315L 91.7027 21.4054L 93.483 21.5878L 94.9747 20.599L 92.2121 16.4315ZM 114.237 4.16752L 139.025 20.599L 144.55 12.2639L 119.763 -4.16752L 114.237 4.16752ZM 142.297 21.4054L 171.882 18.3756L 170.863 8.42766L 141.279 11.4575L 142.297 21.4054ZM 166.99 15.808L 181.302 41.8768L 190.068 37.0642L 175.755 10.9953L 166.99 15.808ZM 183.825 44.1115L 211.429 55.1774L 215.15 45.8955L 187.546 34.8295L 183.825 44.1115ZM 208.29 50.6303L 208.848 80.3645L 218.847 80.1767L 218.288 50.4426L 208.29 50.6303ZM 210.043 83.5154L 229.343 106.142L 236.951 99.6524L 217.652 77.0258L 210.043 83.5154ZM 228.677 100.657L 215.353 127.245L 224.293 131.725L 237.617 105.137L 228.677 100.657ZM 214.947 130.59L 221.521 159.594L 231.273 157.384L 224.699 128.38L 214.947 130.59ZM 223.48 154.428L 199.326 171.778L 205.16 179.9L 229.314 162.55L 223.48 154.428ZM 197.412 174.552L 189.754 203.288L 199.417 205.863L 207.075 177.127L 197.412 174.552ZM 193.89 199.624L 164.439 203.763L 165.831 213.665L 195.281 209.527L 193.89 199.624ZM 161.456 205.329L 141.32 227.215L 148.68 233.985L 168.815 212.099L 161.456 205.329ZM 146.685 225.893L 118.685 215.871L 115.315 225.286L 143.315 235.308L 146.685 225.893ZM 115.315 215.871L 87.3151 225.893L 90.685 235.308L 118.685 225.286L 115.315 215.871ZM 92.6797 227.215L 72.5444 205.329L 65.1851 212.099L 85.3204 233.985L 92.6797 227.215ZM 69.5605 203.763L 40.1104 199.624L 38.7189 209.527L 68.169 213.665L 69.5605 203.763ZM 44.246 203.288L 36.5881 174.552L 26.9253 177.127L 34.5833 205.863L 44.246 203.288ZM 34.6738 171.778L 10.5202 154.428L 4.68602 162.55L 28.8396 179.9L 34.6738 171.778ZM 12.4794 159.594L 19.0532 130.59L 9.30054 128.38L 2.72678 157.384L 12.4794 159.594ZM 18.647 127.245L 5.32318 100.657L -3.61706 105.137L 9.70674 131.725L 18.647 127.245ZM 4.6572 106.142L 23.9567 83.5154L 16.3484 77.0258L -2.95108 99.6524L 4.6572 106.142ZM 25.1517 80.3645L 25.71 50.6303L 15.7118 50.4426L 15.1535 80.1767L 25.1517 80.3645ZM 22.5714 55.1774L 50.1753 44.1115L 46.4544 34.8295L 18.8504 45.8955L 22.5714 55.1774ZM 52.6977 41.8768L 67.0103 15.808L 58.2445 10.9953L 43.932 37.0642L 52.6977 41.8768ZM 62.118 18.3756L 91.7027 21.4054L 92.7215 11.4575L 63.1368 8.42766L 62.118 18.3756ZM 94.9747 20.599L 119.763 4.16752L 114.237 -4.16752L 89.4495 12.2639L 94.9747 20.599Z"/>
<path id="path4_fill" d="M 163 81.5C 163 126.511 126.511 163 81.5 163C 36.4888 163 0 126.511 0 81.5C 0 36.4888 36.4888 0 81.5 0C 126.511 0 163 36.4888 163 81.5Z"/>
<path id="path5_stroke_2x" d="M 158 81.5C 158 123.75 123.75 158 81.5 158L 81.5 168C 129.273 168 168 129.273 168 81.5L 158 81.5ZM 81.5 158C 39.2502 158 5 123.75 5 81.5L -5 81.5C -5 129.273 33.7274 168 81.5 168L 81.5 158ZM 5 81.5C 5 39.2502 39.2502 5 81.5 5L 81.5 -5C 33.7274 -5 -5 33.7274 -5 81.5L 5 81.5ZM 81.5 5C 123.75 5 158 39.2502 158 81.5L 168 81.5C 168 33.7274 129.273 -5 81.5 -5L 81.5 5Z"/>
</defs>
</svg>
